<?xml version="1.0" encoding="UTF-8" standalone="no"?>
<svg
   xmlns:dc="http://purl.org/dc/elements/1.1/"
   xmlns:cc="http://creativecommons.org/ns#"
   xmlns:rdf="http://www.w3.org/1999/02/22-rdf-syntax-ns#"
   xmlns:svg="http://www.w3.org/2000/svg"
   xmlns="http://www.w3.org/2000/svg"
   xmlns:sodipodi="http://sodipodi.sourceforge.net/DTD/sodipodi-0.dtd"
   xmlns:inkscape="http://www.inkscape.org/namespaces/inkscape"
   version="1.1"
   width="220"
   height="220"
   id="svg5358"
   sodipodi:docname="logoMSlab.svg"
   inkscape:version="0.92.2 (5c3e80d, 2017-08-06)">
  <metadata
     id="metadata28">
    <rdf:RDF>
      <cc:Work
         rdf:about="">
        <dc:format>image/svg+xml</dc:format>
        <dc:type
           rdf:resource="http://purl.org/dc/dcmitype/StillImage" />
        <dc:title></dc:title>
      </cc:Work>
    </rdf:RDF>
  </metadata>
  <sodipodi:namedview
     pagecolor="#ffffff"
     bordercolor="#666666"
     borderopacity="1"
     objecttolerance="10"
     gridtolerance="10"
     guidetolerance="10"
     inkscape:pageopacity="0"
     inkscape:pageshadow="2"
     inkscape:window-width="1920"
     inkscape:window-height="1017"
     id="namedview26"
     showgrid="false"
     inkscape:zoom="3.8545455"
     inkscape:cx="110"
     inkscape:cy="110"
     inkscape:window-x="-8"
     inkscape:window-y="-8"
     inkscape:window-maximized="1"
     inkscape:current-layer="svg5358" />
  <defs
     id="defs5360" />
  <path
     d="M 104.8675,104.8675 0,104.8675 0,0 l 104.8675,0 0,104.8675 z"
     id="path5058"
     style="fill:#F35325;fill-opacity:1;fill-rule:nonzero;stroke:none" />
  <path
     d="m 220.65375,104.8675 -104.86625,0 0,-104.8675 104.86625,0 0,104.8675 z"
     id="path5060"
     style="fill:#81BC06;fill-opacity:1;fill-rule:nonzero;stroke:none" />
  <path
     d="m 104.865,220.695 -104.865,0 0,-104.8675 104.865,0 0,104.8675 z"
     id="path5062"
     style="fill:#05A6F0;fill-opacity:1;fill-rule:nonzero;stroke:none" />
  <path
     d="m 220.65375,220.695 -104.86625,0 0,-104.8675 104.86625,0 0,104.8675 z"
     id="path5064"
     style="fill:#FFBA08;fill-opacity:1;fill-rule:nonzero;stroke:none" />
  <g
     transform="matrix(0.71758633,0,0,-0.68317101,105.13932,237.79218)"
     id="g10">
    <g
       transform="scale(0.1)"
       id="g12">
      <path
         inkscape:connector-curvature="0"
         id="path14"
         style="fill:#231f20;fill-opacity:1;fill-rule:evenodd;stroke:none"
         d="M 1333.87,1118.59 C 1086.07,1040.03 320.445,889.039 523.512,679.91 c -349.567,241.102 605.028,408.7 810.358,438.68 v 0" />
      <path
         inkscape:connector-curvature="0"
         id="path16"
         style="fill:#231f20;fill-opacity:1;fill-rule:evenodd;stroke:none"
         d="m 933.93,569.879 123.12,-67.32 123.12,-67.27 H 687.734 l 123.125,67.27 z m 15.41,958.751 c 283.22,0 514.19,-230.99 514.19,-514.2 0,-283.18 -230.97,-514.16 -514.19,-514.16 -132.293,0 -253.188,50.429 -344.481,133.039 84.364,-72.899 194.145,-117.098 313.942,-117.098 264.929,0 449.059,212.699 449.059,477.602 0,264.907 -184.13,484.307 -449.059,484.307 -264.91,0 -480.949,-216.06 -480.949,-480.96 0,-28.183 2.464,-55.808 7.16,-82.691 -6.414,32.34 -9.817,65.789 -9.817,99.961 0,283.21 230.981,514.2 514.145,514.2 v 0" />
      <path
         inkscape:connector-curvature="0"
         id="path18"
         style="fill:#231f20;fill-opacity:1;fill-rule:evenodd;stroke:none"
         d="m 926.109,801.711 c 38.407,0 69.758,-31.32 69.758,-69.731 0,-38.421 -31.351,-69.75 -69.758,-69.75 -38.406,0 -69.726,31.329 -69.726,69.75 0,38.411 31.32,69.731 69.726,69.731 z M 987.227,759.27 C 897.273,683.289 440.984,541.93 317.734,677.512 160.414,850.602 655.855,1114.63 1140.05,1116.82 711.328,1061.83 356.055,889.078 402.422,756.57 c 66.109,-188.879 488.516,-42.761 584.805,2.7 v 0" />
    </g>
  </g>
</svg>
